<?xml version="1.0" encoding="UTF-8"?>
<svg width="552px" height="72px" viewBox="0 0 552 72" version="1.1" xmlns="http://www.w3.org/2000/svg" xmlns:xlink="http://www.w3.org/1999/xlink">
    <!-- Generator: Sketch 62 (91390) - https://sketch.com -->
    <title>Logo Copy 2</title>
    <desc>Created with Sketch.</desc>
    <g id="Mobile" stroke="none" stroke-width="1" fill="none" fill-rule="evenodd">
        <g id="Logo-Copy-2" transform="translate(-1.000000, 0.000000)" fill-rule="nonzero">
            <g id="noun_Running_1473810" transform="translate(450.592524, 0.000000)" fill="#FF4143">
                <g id="Group">
                    <path d="M21.3066109,2.29090909 C22.9582862,0.163636364 25.9313016,-0.327272727 28.0784795,1.14545455 C28.7391496,1.63636364 30.3908248,2.94545455 36.1716883,11.7818182 C38.1536986,14.7272727 41.4570491,16.6909091 44.9255672,17.3454545 C45.7514048,17.5090909 46.4120749,18.4909091 46.2469074,19.3090909 C46.0817398,20.1272727 45.0907347,20.7818182 44.264897,20.6181818 C39.8053738,19.9636364 35.8413532,17.3454545 33.3638403,13.7454545 C28.5739821,6.05454545 26.5919717,4.41818182 26.0964692,3.92727273 C25.4357991,3.43636364 24.4447939,3.6 23.9492913,4.25454545 L23.9492913,4.25454545 L21.967281,7.36363636 L23.4537887,21.1090909 C23.4537887,22.5818182 23.1234537,24.0545455 22.2976161,25.2 C21.4717784,26.3454545 20.8111083,26.6727273 20.8111083,26.6727273 L20.8111083,26.6727273 L66.8928482,60.5454545 C68.2141884,61.5272727 69.8658636,62.0181818 71.5175389,62.0181818 L71.5175389,62.0181818 L98.4398457,62.0181818 C99.2656833,60.7090909 99.2656833,59.4 98.6050132,58.0909091 C98.4398457,57.6 98.1095106,57.4363636 97.7791756,57.2727273 L97.7791756,57.2727273 L85.3916111,52.5272727 L80.4365853,50.7272727 L80.2714178,50.7272727 L63.4243301,44.3454545 C63.093995,44.3454545 62.76366,44.0181818 62.5984925,43.6909091 L62.5984925,43.6909091 L48.8895878,20.4545455 C48.5592527,19.9636364 48.5592527,19.4727273 48.7244203,18.9818182 C49.5502579,17.1818182 51.5322682,15.7090909 54.0097811,15.3818182 C56.817629,15.0545455 59.4603095,16.2 61.4423198,18.4909091 C61.6074873,18.4909091 61.6074873,18.6545455 61.6074873,18.6545455 L61.6074873,18.6545455 L63.7546652,22.0909091 L65.2411729,22.0909091 C66.232178,22.0909091 66.8928482,22.7454545 66.8928482,23.7272727 C66.8928482,24.3818182 66.3973456,25.0363636 65.7366755,25.2 L65.7366755,25.2 L67.3883507,27.8181818 L69.040026,27.8181818 C70.0310312,27.8181818 70.6917013,28.4727273 70.6917013,29.4545455 C70.6917013,30.2727273 70.1961987,30.9272727 69.370361,31.0909091 L69.370361,31.0909091 L71.3523714,34.3636364 L73.0040466,34.3636364 C73.9950518,34.3636364 74.6557219,35.0181818 74.6557219,36 C74.6557219,36.8181818 74.1602193,37.4727273 73.3343817,37.6363636 L73.3343817,37.6363636 L77.6287374,44.6727273 C78.454575,45.9818182 79.7759152,46.9636364 81.2624229,47.6181818 L81.2624229,47.6181818 L86.3826163,49.4181818 L98.9353483,54.1636364 C99.9263534,54.6545455 100.917359,55.4727273 101.412861,56.4545455 C102.899369,59.0727273 102.734201,61.8545455 100.587024,64.8 C98.1095106,68.2363636 88.3646266,71.8363636 81.592758,71.8363636 L81.592758,71.8363636 L18.1684279,71.8363636 C17.1774227,71.8363636 16.5167526,71.1818182 16.5167526,70.2 C16.5167526,69.2181818 17.1774227,68.5636364 18.1684279,68.5636364 L18.1684279,68.5636364 L60.7816497,68.5636364 C51.0367656,62.3454545 33.6941754,51.3818182 20.9762758,43.2 C20.1504382,42.7090909 19.9852707,41.7272727 20.4807733,40.9090909 C20.9762758,40.0909091 21.967281,39.9272727 22.7931186,40.4181818 C35.8413532,48.7636364 53.679446,60.0545455 63.2591626,66.1090909 C65.5715079,67.5818182 68.3793559,68.4 71.1872038,68.4 L71.1872038,68.4 L81.7579255,68.4 L82.2371895,68.3935387 C86.2536097,68.2864712 90.8103765,66.8643357 94.14549,65.2909091 L94.14549,65.2909091 L71.3523714,65.2909091 C69.040026,65.2909091 66.7276806,64.6363636 64.7456703,63.1636364 L64.7456703,63.1636364 L12.8830671,24.8727273 L12.7632172,24.7928575 C12.1075226,24.4027682 11.2022446,24.5839572 10.7358892,25.2 L10.7358892,25.2 L8.25837632,28.9636364 C7.76287374,29.7818182 7.92804126,30.6 8.58871137,31.0909091 C10.0752191,32.2363636 13.2134021,34.2 17.6729253,37.1454545 C18.4987629,37.6363636 18.6639305,38.6181818 18.1684279,39.4363636 C17.8380928,39.9272727 17.3425903,40.2545455 16.8470877,40.2545455 C16.6819202,40.2545455 16.3515851,40.0909091 16.0212501,39.9272727 C11.3965593,36.9818182 8.25837632,35.0181818 6.77186858,33.8727273 C4.62469074,32.4 3.96402063,29.4545455 5.45052837,27.3272727 L5.45052837,27.3272727 L8.09320879,23.2363636 C8.58871137,22.2545455 9.57971653,21.7636364 10.5707217,21.4363636 C10.4055542,20.2909091 10.5707217,19.1454545 11.2313918,18.1636364 L11.2313918,18.1636364 Z M11.5617268,68.4 C12.552732,68.4 13.2134021,69.0545455 13.2134021,70.0363636 C13.2134021,71.0181818 12.552732,71.6727273 11.5617268,71.6727273 L11.5617268,71.6727273 L8.25837632,71.6727273 C7.26737116,71.6727273 6.60670105,71.0181818 6.60670105,70.0363636 C6.60670105,69.0545455 7.26737116,68.4 8.25837632,68.4 L8.25837632,68.4 Z M33.6941754,60.2181818 C34.6851805,60.2181818 35.3458506,60.8727273 35.3458506,61.8545455 C35.3458506,62.6727273 34.6851805,63.4909091 33.6941754,63.4909091 L33.6941754,63.4909091 L4.95502579,63.4909091 C3.96402063,63.4909091 3.30335053,62.8363636 3.30335053,61.8545455 C3.30335053,60.8727273 3.96402063,60.2181818 4.95502579,60.2181818 L4.95502579,60.2181818 Z M17.6729253,52.0363636 C18.6639305,52.0363636 19.3246006,52.6909091 19.3246006,53.6727273 C19.3246006,54.4909091 18.6639305,55.3090909 17.6729253,55.3090909 L17.6729253,55.3090909 L1.65167526,55.3090909 C0.660670105,55.3090909 -9.41469125e-14,54.6545455 -9.41469125e-14,53.6727273 C-9.41469125e-14,52.6909091 0.660670105,52.0363636 1.65167526,52.0363636 L1.65167526,52.0363636 Z M58.7996394,20.6181818 C57.1479641,18.8181818 55.3311213,18.6545455 54.3401162,18.8181818 C53.349111,18.9818182 52.5232734,19.4727273 52.0277708,19.9636364 L52.0277708,19.9636364 L64.9108378,41.7272727 L73.9950518,45 L69.370361,37.8 L66.0670105,37.8 C65.0760054,37.8 64.4153353,37.1454545 64.4153353,36.1636364 C64.4153353,35.1818182 65.0760054,34.5272727 66.0670105,34.5272727 L66.0670105,34.5272727 L67.3883507,34.5272727 L65.4063404,31.4181818 L62.1029899,31.4181818 C61.1119847,31.4181818 60.4513146,30.7636364 60.4513146,29.7818182 C60.4513146,28.8 61.1119847,28.1454545 62.1029899,28.1454545 L62.1029899,28.1454545 L63.4243301,28.1454545 L61.7726548,25.5272727 L58.3041368,25.5272727 C57.3131316,25.5272727 56.6524615,24.8727273 56.6524615,23.8909091 C56.6524615,22.9090909 57.3131316,22.2545455 58.3041368,22.2545455 L58.3041368,22.2545455 L59.7906445,22.2545455 Z M19.1594331,11.9454545 L14.0392397,19.9636364 C13.7089047,20.6181818 13.8740722,21.4363636 14.8650774,22.2545455 C16.3515851,23.4 17.1774227,23.8909091 17.1774227,23.8909091 C18.6639305,25.0363636 19.3246006,23.7272727 19.6549356,23.2363636 C19.9852707,22.7454545 20.1504382,22.0909091 20.1504382,21.4363636 L20.1504382,21.4363636 L19.1594331,11.9454545 Z" id="Combined-Shape"></path>
                </g>
            </g>
            <path d="M16.9935096,54.9414062 L11.4170556,54.9414062 L11.4170556,70 L1.11529078,70 L1.11529078,27.34375 L17.9327018,27.34375 C23.0004519,27.34375 26.9626296,28.4667856 29.8193536,30.7128906 C32.6760776,32.9589956 34.1044182,36.132792 34.1044182,40.234375 C34.1044182,43.2031398 33.5027541,45.6640527 32.2994081,47.6171875 C31.096062,49.5703223 29.2128047,51.1523377 26.6495798,52.3632812 L35.571906,69.5605469 L35.571906,70 L24.5363972,70 L16.9935096,54.9414062 Z M11.4170556,47.0019531 L17.9327018,47.0019531 C19.8893621,47.0019531 21.3617269,46.4892629 22.3498403,45.4638672 C23.3379537,44.4384714 23.832003,43.0078217 23.832003,41.171875 C23.832003,39.3359283 23.3330622,37.895513 22.3351654,36.8505859 C21.3372687,35.8056588 19.8697955,35.2832031 17.9327018,35.2832031 L11.4170556,35.2832031 L11.4170556,47.0019531 Z M76.5148177,49.5507812 C76.5148177,53.7109583 75.7419484,57.3925621 74.1961868,60.5957031 C72.6504252,63.7988441 70.454107,66.2646398 67.6071663,67.9931641 C64.7602256,69.7216883 61.5171098,70.5859375 57.8777217,70.5859375 C54.2383336,70.5859375 51.0098925,69.7509849 48.1923017,68.0810547 C45.3747109,66.4111245 43.1783927,64.023453 41.6032812,60.9179687 C40.0281697,57.8124845 39.2014931,54.248067 39.1232267,50.2246094 L39.1232267,47.8222656 C39.1232267,43.6425572 39.8912043,39.9560707 41.4271826,36.7626953 C42.963161,33.56932 45.1643708,31.1035243 48.0308781,29.3652344 C50.8973854,27.6269444 54.1600674,26.7578125 57.8190222,26.7578125 C61.4388437,26.7578125 64.6672847,27.6171789 67.5044421,29.3359375 C70.3415995,31.0546961 72.5477009,33.5009607 74.1228124,36.6748047 C75.697924,39.8486487 76.4952511,43.4863076 76.5148177,47.5878906 L76.5148177,49.5507812 Z M66.0369543,47.7636719 C66.0369543,43.5253694 65.3276755,40.3076282 63.9090968,38.1103516 C62.4905181,35.913075 60.4605135,34.8144531 57.8190222,34.8144531 C52.653439,34.8144531 49.9239389,38.681602 49.6304398,46.4160156 L49.6010901,49.5507812 C49.6010901,53.7304896 50.2956941,56.9433481 51.6849229,59.1894531 C53.0741517,61.4355581 55.1383973,62.5585937 57.8777217,62.5585937 C60.4800799,62.5585937 62.4856266,61.4550892 63.894422,59.2480469 C65.3032174,57.0410046 66.0173877,53.8672082 66.0369543,49.7265625 L66.0369543,47.7636719 Z M116.401138,55.5566406 C116.264172,58.5254055 115.461953,61.1474496 113.994458,63.4228516 C112.526963,65.6982536 110.467609,67.4609312 107.816334,68.7109375 C105.165059,69.9609437 102.137173,70.5859375 98.732584,70.5859375 C93.116969,70.5859375 88.6949831,68.7597839 85.4664937,65.1074219 C82.2380042,61.4550599 80.6237837,56.2988614 80.6237837,49.6386719 L80.6237837,47.5292969 C80.6237837,43.3495885 81.3526287,39.6923985 82.8103406,36.5576172 C84.2680525,33.4228359 86.3665392,31.0009851 89.1058636,29.2919922 C91.845188,27.5829993 95.0149301,26.7285156 98.615185,26.7285156 C103.800335,26.7285156 107.967959,28.0908067 111.118182,30.8154297 C114.268405,33.5400527 116.058722,37.2948979 116.489187,42.0800781 L106.216772,42.0800781 C106.138506,39.4824089 105.483034,37.6171932 104.250338,36.484375 C103.017642,35.3515568 101.139277,34.7851562 98.615185,34.7851562 C96.0519601,34.7851562 94.1735944,35.7421779 92.9800316,37.65625 C91.7864688,39.5703221 91.1603469,42.6269321 91.1016471,46.8261719 L91.1016471,49.84375 C91.1016471,54.394554 91.6739617,57.6464746 92.8186079,59.5996094 C93.9632542,61.5527441 95.9345598,62.5292969 98.732584,62.5292969 C101.100143,62.5292969 102.910027,61.9726618 104.162289,60.859375 C105.414552,59.7460882 106.079806,57.9785277 106.158073,55.5566406 L116.401138,55.5566406 Z M135.801328,54.1210937 L131.574963,58.75 L131.574963,70 L121.273198,70 L121.273198,27.34375 L131.574963,27.34375 L131.574963,46.1523437 L135.155633,40.7324219 L144.371457,27.34375 L157.109252,27.34375 L142.669171,46.2109375 L157.109252,70 L144.899753,70 L135.801328,54.1210937 Z M186.224211,51.9238281 L170.023145,51.9238281 L170.023145,62.0898437 L189.159187,62.0898437 L189.159187,70 L159.72138,70 L159.72138,27.34375 L189.217886,27.34375 L189.217886,35.2832031 L170.023145,35.2832031 L170.023145,44.2773437 L186.224211,44.2773437 L186.224211,51.9238281 Z M227.48997,35.2832031 L214.664126,35.2832031 L214.664126,70 L204.362361,70 L204.362361,35.2832031 L191.771315,35.2832031 L191.771315,27.34375 L227.48997,27.34375 L227.48997,35.2832031 Z M253.405806,58.6621094 C253.405806,57.1581956 252.872624,55.9863323 251.806244,55.1464844 C250.739864,54.3066364 248.86639,53.4375045 246.185765,52.5390625 C243.505141,51.6406205 241.313714,50.7714886 239.61142,49.9316406 C234.074071,47.2167833 231.305438,43.4863519 231.305438,38.7402344 C231.305438,36.3769413 231.995151,34.2920012 233.374596,32.4853516 C234.754042,30.6787019 236.705781,29.272466 239.229873,28.2666016 C241.753965,27.2607372 244.59108,26.7578125 247.741303,26.7578125 C250.813259,26.7578125 253.567217,27.304682 256.003259,28.3984375 C258.439301,29.492193 260.332342,31.0497946 261.682437,33.0712891 C263.032533,35.0927835 263.707571,37.4023308 263.707571,40 L253.435156,40 C253.435156,38.2617101 252.901974,36.9140673 251.835594,35.9570312 C250.769214,34.9999952 249.326199,34.5214844 247.506505,34.5214844 C245.667244,34.5214844 244.214445,34.9267538 243.148066,35.7373047 C242.081686,36.5478556 241.548504,37.5781187 241.548504,38.828125 C241.548504,39.9218805 242.135493,40.9130815 243.309489,41.8017578 C244.483485,42.6904341 246.547731,43.6083937 249.502288,44.5556641 C252.456845,45.5029344 254.883067,46.523432 256.781028,47.6171875 C261.398746,50.2734508 263.707571,53.9355235 263.707571,58.6035156 C263.707571,62.334003 262.298796,65.2636612 259.481206,67.3925781 C256.663615,69.521495 252.799269,70.5859375 247.888051,70.5859375 C244.424763,70.5859375 241.289262,69.9658265 238.481454,68.7255859 C235.673647,67.4853454 233.560485,65.7861436 232.141907,63.6279297 C230.723328,61.4697158 230.014049,58.9843891 230.014049,56.171875 L240.345164,56.171875 C240.345164,58.4570427 240.937045,60.1415961 242.120824,61.2255859 C243.304604,62.3095757 245.226993,62.8515625 247.888051,62.8515625 C249.590346,62.8515625 250.93553,62.4853552 251.923643,61.7529297 C252.911756,61.0205042 253.405806,59.990241 253.405806,58.6621094 Z M304.709182,70 L294.466116,70 L294.466116,52.1875 L279.292292,52.1875 L279.292292,70 L268.990527,70 L268.990527,27.34375 L279.292292,27.34375 L279.292292,44.2773437 L294.466116,44.2773437 L294.466116,27.34375 L304.709182,27.34375 L304.709182,70 Z M347.413079,49.5507812 C347.413079,53.7109583 346.64021,57.3925621 345.094448,60.5957031 C343.548686,63.7988441 341.352368,66.2646398 338.505428,67.9931641 C335.658487,69.7216883 332.415371,70.5859375 328.775983,70.5859375 C325.136595,70.5859375 321.908154,69.7509849 319.090563,68.0810547 C316.272972,66.4111245 314.076654,64.023453 312.501542,60.9179687 C310.926431,57.8124845 310.099754,54.248067 310.021488,50.2246094 L310.021488,47.8222656 C310.021488,43.6425572 310.789466,39.9560707 312.325444,36.7626953 C313.861422,33.56932 316.062632,31.1035243 318.929139,29.3652344 C321.795647,27.6269444 325.058329,26.7578125 328.717283,26.7578125 C332.337105,26.7578125 335.565546,27.6171789 338.402703,29.3359375 C341.239861,31.0546961 343.445962,33.5009607 345.021074,36.6748047 C346.596185,39.8486487 347.393512,43.4863076 347.413079,47.5878906 L347.413079,49.5507812 Z M336.935215,47.7636719 C336.935215,43.5253694 336.225937,40.3076282 334.807358,38.1103516 C333.388779,35.913075 331.358775,34.8144531 328.717283,34.8144531 C323.5517,34.8144531 320.8222,38.681602 320.528701,46.4160156 L320.499351,49.5507812 C320.499351,53.7304896 321.193955,56.9433481 322.583184,59.1894531 C323.972413,61.4355581 326.036659,62.5585937 328.775983,62.5585937 C331.378341,62.5585937 333.383888,61.4550892 334.792683,59.2480469 C336.201479,57.0410046 336.915649,53.8672082 336.935215,49.7265625 L336.935215,47.7636719 Z M379.228216,51.9238281 L363.02715,51.9238281 L363.02715,62.0898437 L382.163192,62.0898437 L382.163192,70 L352.725385,70 L352.725385,27.34375 L382.221891,27.34375 L382.221891,35.2832031 L363.02715,35.2832031 L363.02715,44.2773437 L379.228216,44.2773437 L379.228216,51.9238281 Z M408.401875,58.6621094 C408.401875,57.1581956 407.868693,55.9863323 406.802313,55.1464844 C405.735933,54.3066364 403.862459,53.4375045 401.181835,52.5390625 C398.50121,51.6406205 396.309783,50.7714886 394.607489,49.9316406 C389.07014,47.2167833 386.301508,43.4863519 386.301508,38.7402344 C386.301508,36.3769413 386.99122,34.2920012 388.370665,32.4853516 C389.750111,30.6787019 391.70185,29.272466 394.225942,28.2666016 C396.750034,27.2607372 399.587149,26.7578125 402.737372,26.7578125 C405.809328,26.7578125 408.563286,27.304682 410.999328,28.3984375 C413.43537,29.492193 415.328411,31.0497946 416.678506,33.0712891 C418.028602,35.0927835 418.70364,37.4023308 418.70364,40 L408.431225,40 C408.431225,38.2617101 407.898043,36.9140673 406.831663,35.9570312 C405.765283,34.9999952 404.322268,34.5214844 402.502574,34.5214844 C400.663313,34.5214844 399.210514,34.9267538 398.144135,35.7373047 C397.077755,36.5478556 396.544573,37.5781187 396.544573,38.828125 C396.544573,39.9218805 397.131562,40.9130815 398.305558,41.8017578 C399.479554,42.6904341 401.5438,43.6083937 404.498357,44.5556641 C407.452914,45.5029344 409.879136,46.523432 411.777097,47.6171875 C416.394815,50.2734508 418.70364,53.9355235 418.70364,58.6035156 C418.70364,62.334003 417.294865,65.2636612 414.477275,67.3925781 C411.659684,69.521495 407.795338,70.5859375 402.88412,70.5859375 C399.420832,70.5859375 396.285331,69.9658265 393.477523,68.7255859 C390.669716,67.4853454 388.556554,65.7861436 387.137976,63.6279297 C385.719397,61.4697158 385.010118,58.9843891 385.010118,56.171875 L395.341233,56.171875 C395.341233,58.4570427 395.933114,60.1415961 397.116893,61.2255859 C398.300673,62.3095757 400.223062,62.8515625 402.88412,62.8515625 C404.586415,62.8515625 405.931599,62.4853552 406.919712,61.7529297 C407.907826,61.0205042 408.401875,59.990241 408.401875,58.6621094 Z" id="ROCKETSHOES" fill="#2D3235"></path>
        </g>
    </g>
</svg>